<?xml version="1.0" standalone="no"?>
<!DOCTYPE svg PUBLIC "-//W3C//DTD SVG 20010904//EN"
 "http://www.w3.org/TR/2001/REC-SVG-20010904/DTD/svg10.dtd">
<svg version="1.0" xmlns="http://www.w3.org/2000/svg"
 width="2400.000000pt" height="1100.000000pt" viewBox="0 0 2400.000000 1100.000000"
 preserveAspectRatio="xMidYMid meet">

<g transform="translate(0.000000,1100.000000) scale(0.100000,-0.100000)"
fill="#000000" stroke="none">
<path d="M5946 9798 c-8 -30 -8 -88 0 -88 16 0 33 38 34 73 0 42 -24 52 -34
15z"/>
<path d="M4350 9610 c0 -5 10 -10 23 -10 18 0 19 2 7 10 -19 13 -30 13 -30 0z"/>
<path d="M4465 9600 c-3 -5 -19 -10 -36 -10 -16 0 -29 -4 -29 -10 0 -5 6 -10
13 -10 6 0 27 -14 46 -30 24 -21 41 -29 55 -25 17 5 18 4 6 -4 -13 -9 -13 -12
-1 -23 11 -11 14 -11 18 0 6 16 33 -3 33 -24 0 -8 6 -14 14 -14 20 0 56 -48
49 -66 -3 -8 1 -14 10 -14 10 0 13 -7 10 -21 -5 -18 -11 -20 -54 -14 -40 6
-49 4 -49 -8 0 -9 -8 -18 -17 -21 -10 -2 -1 -2 20 1 39 5 48 -5 22 -27 -9 -8
-15 -30 -15 -60 0 -30 6 -52 15 -60 9 -8 15 -30 15 -60 0 -30 6 -52 15 -60 10
-8 15 -31 15 -70 0 -32 7 -71 16 -89 14 -28 14 -34 1 -49 -24 -29 -27 -61 -6
-67 17 -6 19 -17 19 -90 0 -64 -3 -84 -15 -89 -10 -3 -15 -19 -15 -46 0 -28
-4 -40 -14 -40 -8 0 -18 -5 -22 -12 -5 -8 -2 -9 9 -5 9 3 19 2 22 -4 4 -5 2
-8 -3 -7 -9 3 -12 -2 -12 -17 0 -3 9 -1 20 5 31 17 53 -7 28 -32 -21 -21 -24
-48 -4 -48 7 0 19 -6 25 -14 7 -8 30 -17 52 -21 26 -5 43 -14 50 -28 17 -33
51 -57 82 -57 17 0 27 -5 27 -15 0 -13 22 -21 34 -12 2 1 16 -13 32 -30 16
-18 38 -33 50 -33 12 0 31 -13 44 -30 13 -16 29 -30 36 -30 7 0 28 -13 46 -30
18 -16 38 -30 45 -30 6 0 18 -6 25 -13 7 -7 21 -16 31 -20 9 -3 17 -13 17 -21
0 -18 42 -29 52 -13 10 16 30 -4 33 -35 1 -13 3 -28 4 -34 0 -7 12 -9 29 -6
22 4 25 2 15 -9 -19 -20 -16 -29 12 -29 14 0 29 -8 35 -20 6 -11 16 -20 23
-20 7 0 17 -8 24 -19 8 -13 19 -17 38 -14 14 3 24 8 21 10 -9 10 29 43 50 43
24 0 40 15 46 45 2 12 10 19 21 17 9 -2 17 2 17 8 0 15 26 41 34 33 3 -3 10 5
15 18 5 13 23 37 40 53 17 17 31 35 31 42 0 6 7 25 15 40 8 16 15 36 15 45 0
9 7 30 15 45 22 43 20 101 -5 116 -33 21 -23 33 27 33 42 0 48 3 51 22 2 12
10 27 18 33 8 7 14 22 14 34 1 11 14 32 30 46 28 22 30 29 30 92 0 52 4 70 15
74 9 4 15 19 15 41 0 19 9 48 21 64 11 16 16 29 10 29 -6 0 -11 6 -11 14 0 8
-7 17 -16 20 -14 5 -15 4 -4 -9 10 -12 10 -15 -4 -15 -9 0 -19 7 -22 15 -4 8
-11 12 -18 8 -6 -3 -6 -1 2 8 16 18 15 29 -3 29 -8 0 -15 -4 -15 -10 0 -5 -11
-10 -24 -10 -14 0 -28 5 -31 10 -3 6 3 10 13 10 13 0 21 9 24 24 4 20 -1 27
-21 36 -15 6 -44 26 -65 45 -22 19 -42 32 -46 30 -10 -6 -36 25 -44 53 -4 12
-15 22 -26 22 -11 0 -23 6 -27 13 -4 7 -25 21 -46 32 -21 11 -58 39 -83 63
-25 23 -49 42 -53 42 -4 0 -16 9 -26 20 -10 11 -28 20 -40 20 -13 0 -25 7 -29
15 -3 8 -13 15 -21 15 -9 0 -13 5 -10 10 3 6 3 10 -2 11 -30 3 -45 11 -72 38
-16 17 -36 28 -44 25 -8 -3 -20 2 -27 11 -7 8 -21 15 -32 15 -11 0 -32 13 -48
28 -21 21 -33 26 -48 21 -16 -6 -21 -3 -27 19 -6 23 -8 25 -16 9 -6 -9 -7 -23
-2 -30 4 -6 6 -20 5 -29 -2 -10 1 -18 7 -18 19 0 -10 -60 -30 -61 -10 -1 -25
-2 -31 -3 -7 -1 -12 7 -12 17 1 9 -3 17 -10 16 -34 -4 -44 2 -39 22 6 20 3 21
-36 14 -33 -5 -41 -4 -41 8 0 17 -47 29 -53 13 -3 -6 -8 1 -12 17 -8 29 -15
33 -32 16 -16 -16 -35 -1 -28 22 8 23 -21 27 -39 5 -6 -7 -31 -21 -55 -30 -36
-14 -46 -15 -52 -4 -14 22 -10 25 27 24 47 -1 58 22 15 30 -18 4 -36 15 -42
26 -7 13 -17 18 -31 15 -28 -8 -48 2 -48 24 0 10 -4 19 -10 19 -5 0 -10 -4
-10 -9 0 -5 -10 -11 -23 -13 -20 -4 -23 -1 -19 24 4 27 -10 39 -23 18z m394
-247 c-8 -9 -16 -10 -22 -4 -13 13 0 31 19 24 11 -4 12 -8 3 -20z m-9 -33 c26
-26 25 -42 -2 -38 -16 2 -22 9 -20 21 2 9 -2 17 -8 17 -5 0 -10 5 -10 10 0 16
18 12 40 -10z m-196 -176 c3 -8 2 -12 -4 -9 -6 3 -10 10 -10 16 0 14 7 11 14
-7z m236 -128 c0 -45 -3 -55 -19 -59 -26 -7 -31 0 -31 41 0 33 23 72 42 72 4
0 8 -24 8 -54z m890 -110 c0 -11 -19 -15 -25 -6 -3 5 1 10 9 10 9 0 16 -2 16
-4z m-925 -26 c3 -5 -1 -10 -10 -10 -9 0 -13 5 -10 10 3 6 8 10 10 10 2 0 7
-4 10 -10z m35 -35 c0 -19 -4 -37 -10 -40 -6 -4 -10 12 -10 40 0 28 4 44 10
40 6 -3 10 -21 10 -40z m30 -6 c0 -24 -4 -38 -10 -34 -5 3 -10 24 -10 46 0 24
4 38 10 34 6 -3 10 -24 10 -46z m945 -25 c0 -12 -3 -20 -7 -18 -12 8 -23 -47
-23 -117 0 -47 -3 -65 -12 -62 -7 3 -13 23 -15 46 -3 37 -6 42 -28 42 -16 0
-25 -5 -24 -15 1 -9 -7 -16 -17 -16 -30 0 -26 59 6 80 14 9 25 22 25 29 0 12
65 53 85 53 6 1 10 -9 10 -22z m51 -13 c-4 -5 0 -12 6 -14 7 -3 2 -6 -11 -6
-20 -1 -21 1 -11 14 14 16 25 21 16 6z m64 -55 c0 -2 -8 -10 -17 -17 -16 -13
-17 -12 -4 4 13 16 21 21 21 13z m-234 -124 c-4 -3 -12 0 -19 7 -9 9 -9 14 3
21 11 7 16 5 18 -6 2 -9 1 -18 -2 -22z m149 -22 c-3 -5 -10 -10 -16 -10 -5 0
-9 5 -9 10 0 6 7 10 16 10 8 0 12 -4 9 -10z m-185 -120 c0 -5 -4 -10 -10 -10
-5 0 -10 5 -10 10 0 6 5 10 10 10 6 0 10 -4 10 -10z m-951 -77 c0 -25 -1 -25
-8 -8 -5 11 -7 23 -4 28 8 14 13 7 12 -20z m831 -148 c0 -14 -4 -25 -10 -25
-5 0 -10 11 -10 25 0 14 5 25 10 25 6 0 10 -11 10 -25z m-120 -205 c0 -5 -4
-10 -10 -10 -5 0 -10 5 -10 10 0 6 5 10 10 10 6 0 10 -4 10 -10z m-30 -83 c0
-17 -38 -52 -47 -44 -9 10 18 57 34 57 7 0 13 -6 13 -13z"/>
<path d="M4685 9510 c-3 -5 -1 -10 4 -10 6 0 11 5 11 10 0 6 -2 10 -4 10 -3 0
-8 -4 -11 -10z"/>
<path d="M5030 9495 c0 -8 4 -15 10 -15 5 0 7 7 4 15 -4 8 -8 15 -10 15 -2 0
-4 -7 -4 -15z"/>
<path d="M5988 9470 c-20 -27 -25 -124 -8 -135 9 -6 12 4 14 53 1 9 5 20 9 23
5 3 7 24 5 45 l-3 39 -17 -25z"/>
<path d="M3395 9420 c3 -5 24 -10 46 -10 21 0 39 5 39 10 0 6 -21 10 -46 10
-27 0 -43 -4 -39 -10z"/>
<path d="M4045 9420 c3 -5 24 -10 45 -10 21 0 42 5 45 10 4 6 -13 10 -45 10
-32 0 -49 -4 -45 -10z"/>
<path d="M3500 9395 c0 -10 10 -15 30 -15 32 0 40 14 14 24 -27 10 -44 7 -44
-9z"/>
<path d="M3155 9385 c21 -17 37 -15 43 3 2 8 -8 12 -30 12 -31 -1 -32 -1 -13
-15z"/>
<path d="M3870 9393 c8 -3 18 -10 21 -16 4 -5 21 -6 39 -2 43 9 20 25 -35 24
-22 0 -33 -3 -25 -6z"/>
<path d="M6027 9383 c-10 -10 -8 -66 3 -83 7 -11 10 0 10 38 0 53 -1 57 -13
45z"/>
<path d="M2985 9360 c-3 -5 1 -10 10 -10 9 0 13 5 10 10 -3 6 -8 10 -10 10 -2
0 -7 -4 -10 -10z"/>
<path d="M3246 9355 c-11 -8 -16 -18 -12 -22 4 -4 10 -2 14 4 4 6 27 15 52 21
l45 10 -40 1 c-22 0 -49 -6 -59 -14z"/>
<path d="M4213 9363 c9 -2 23 -2 30 0 6 3 -1 5 -18 5 -16 0 -22 -2 -12 -5z"/>
<path d="M2832 9328 c3 -7 16 -14 31 -16 18 -2 26 -9 25 -20 -1 -9 0 -43 0
-76 2 -51 4 -57 17 -46 10 8 15 30 15 61 0 41 3 49 19 49 10 0 24 7 31 15 11
13 7 15 -23 15 -19 0 -40 7 -47 15 -15 18 -74 21 -68 3z"/>
<path d="M3035 9329 c-4 -6 -5 -12 -3 -14 7 -7 88 8 88 16 0 13 -78 11 -85 -2z"/>
<path d="M4390 9336 c0 -7 50 -13 55 -7 2 4 -10 8 -26 9 -16 1 -29 1 -29 -2z"/>
<path d="M2737 9303 c-4 -3 -7 -21 -7 -40 0 -18 -4 -33 -10 -33 -5 0 -10 4
-10 10 0 11 -53 40 -74 40 -8 0 -22 -8 -32 -17 -12 -13 -33 -18 -69 -18 -36 0
-57 -6 -69 -18 -10 -9 -23 -17 -31 -17 -7 0 -26 -7 -41 -15 -16 -8 -36 -15
-45 -15 -9 0 -30 -7 -45 -15 -16 -8 -38 -15 -49 -15 -11 0 -29 -7 -39 -15 -11
-8 -28 -15 -38 -15 -10 0 -18 -4 -18 -9 0 -5 -10 -13 -22 -16 -36 -11 -107
-46 -114 -56 -3 -5 -14 -9 -26 -9 -11 0 -39 -13 -62 -28 -22 -15 -61 -38 -86
-51 -25 -12 -58 -31 -75 -42 -16 -10 -39 -23 -50 -28 -11 -5 -33 -21 -49 -35
-16 -14 -35 -26 -43 -26 -7 0 -13 -4 -13 -8 0 -9 -96 -82 -107 -82 -5 0 -21
-12 -36 -26 -15 -14 -58 -48 -95 -76 -113 -86 -408 -390 -481 -495 -14 -21
-32 -44 -39 -51 -16 -18 -91 -124 -117 -167 -12 -19 -28 -42 -37 -52 -9 -10
-41 -61 -72 -113 -31 -52 -61 -102 -66 -110 -6 -8 -15 -26 -21 -40 -5 -13 -13
-27 -17 -30 -13 -10 -162 -316 -162 -333 0 -30 27 3 90 110 57 97 167 230 296
357 74 74 83 81 174 156 30 25 60 50 67 57 28 26 201 152 243 177 80 48 85 51
90 56 12 13 96 65 127 79 11 5 24 15 28 20 3 6 14 11 24 11 10 0 24 6 30 14
18 22 402 206 429 206 5 0 23 7 38 15 16 8 36 15 44 15 8 0 24 7 34 15 11 8
34 15 52 15 17 0 37 7 44 15 7 8 24 15 39 15 14 0 43 11 65 24 21 14 44 22 51
19 7 -2 31 5 54 16 22 12 55 21 74 21 19 0 47 6 63 14 16 8 56 17 88 20 33 3
63 11 67 18 5 7 42 12 103 14 53 1 96 6 97 11 1 13 -75 32 -83 20 -8 -13 -57
-15 -80 -4 -12 5 -27 1 -45 -12 -22 -16 -36 -18 -68 -12 l-40 7 37 7 c30 6 37
13 40 34 2 21 9 27 38 31 19 2 46 5 58 4 22 0 23 3 18 42 -3 22 -9 70 -14 106
-4 36 -13 75 -20 88 -12 21 -12 22 11 17 23 -6 24 -4 29 60 7 87 28 112 28 33
0 -56 0 -56 27 -49 39 10 51 35 30 59 -21 23 -22 50 -1 73 25 28 11 49 -32 49
-21 0 -45 7 -54 15 -9 8 -20 12 -23 8z m-103 -122 c7 -11 -14 -20 -31 -13 -7
2 -10 8 -7 13 7 12 31 12 38 0z"/>
<path d="M4470 9300 c0 -5 7 -10 15 -10 8 0 15 5 15 10 0 6 -7 10 -15 10 -8 0
-15 -4 -15 -10z"/>
<path d="M6060 9234 c0 -8 -4 -13 -9 -9 -5 3 -12 1 -16 -5 -3 -5 3 -10 14 -10
14 0 21 6 21 20 0 11 -2 20 -5 20 -3 0 -5 -7 -5 -16z"/>
<path d="M6060 9165 c-6 -8 -8 -20 -4 -26 4 -8 3 -9 -4 -5 -7 4 -12 3 -12 -2
0 -5 12 -14 26 -21 22 -10 26 -17 22 -45 -2 -23 0 -32 8 -29 6 2 14 -3 17 -11
7 -18 37 -22 37 -5 0 5 5 7 10 4 6 -3 10 -2 10 4 0 6 7 8 15 5 21 -8 19 24 -2
49 -10 11 -13 18 -8 15 6 -4 21 0 35 8 25 13 24 13 -16 14 -27 0 -46 -6 -55
-17 -8 -9 -9 -14 -4 -11 6 3 10 -6 11 -22 1 -19 -3 -27 -12 -23 -15 5 -26 46
-18 66 3 8 -2 17 -11 21 -11 4 -14 12 -10 26 8 24 -16 28 -35 5z"/>
<path d="M6120 8965 c0 -8 5 -15 10 -15 6 0 10 7 10 15 0 8 -4 15 -10 15 -5 0
-10 -7 -10 -15z"/>
<path d="M2890 8927 c0 -32 9 -57 22 -57 14 0 5 73 -9 78 -8 2 -13 -6 -13 -21z"/>
<path d="M6098 8928 c-7 -18 2 -39 13 -32 12 7 12 44 0 44 -5 0 -11 -6 -13
-12z"/>
<path d="M6150 8865 c0 -15 4 -24 10 -20 6 3 10 12 10 20 0 8 -4 17 -10 20 -6
4 -10 -5 -10 -20z"/>
<path d="M2770 8850 c0 -5 5 -10 11 -10 5 0 7 5 4 10 -3 6 -8 10 -11 10 -2 0
-4 -4 -4 -10z"/>
<path d="M6132 8835 c-1 -11 -9 -30 -17 -42 -16 -23 -8 -37 14 -24 8 5 11 22
8 47 -2 21 -4 30 -5 19z"/>
<path d="M6237 8795 c-4 -8 -2 -17 3 -20 6 -4 10 3 10 14 0 25 -6 27 -13 6z"/>
<path d="M2985 8761 c-6 -11 9 -23 19 -14 9 9 7 23 -3 23 -6 0 -12 -4 -16 -9z"/>
<path d="M3030 8760 c0 -5 11 -10 25 -10 14 0 25 5 25 10 0 6 -11 10 -25 10
-14 0 -25 -4 -25 -10z"/>
<path d="M3288 8753 c7 -3 16 -2 19 1 4 3 -2 6 -13 5 -11 0 -14 -3 -6 -6z"/>
<path d="M6084 8726 c-8 -21 3 -49 16 -41 5 3 10 15 10 25 0 25 -18 36 -26 16z"/>
<path d="M6296 8703 c-4 -9 -2 -21 4 -27 7 -7 10 -2 10 17 0 31 -5 34 -14 10z"/>
<path d="M2915 8700 c-4 -6 7 -10 26 -10 18 0 29 3 25 7 -11 11 -45 13 -51 3z"/>
<path d="M6050 8622 c0 -5 -8 -18 -18 -30 -12 -14 -17 -31 -14 -52 2 -16 6
-30 7 -30 6 0 45 86 45 98 0 6 -4 14 -10 17 -5 3 -10 2 -10 -3z"/>
<path d="M4500 8546 c-7 -9 -21 -16 -32 -16 -22 0 -40 -39 -26 -57 6 -7 18
-13 28 -13 9 0 37 -11 63 -23 28 -15 51 -21 59 -16 13 9 11 10 -14 13 -15 1
-12 44 4 63 5 7 8 22 6 35 -2 18 -10 24 -39 26 -23 2 -40 -2 -49 -12z"/>
<path d="M6377 8544 c3 -7 9 -14 14 -14 14 0 10 17 -5 23 -10 4 -13 1 -9 -9z"/>
<path d="M5932 8388 c-25 -27 -61 -105 -62 -132 0 -15 3 -16 15 -6 8 7 15 20
15 29 0 9 18 35 40 56 40 39 52 75 27 75 -8 0 -23 -10 -35 -22z"/>
<path d="M2806 8272 c-55 -1 -105 -7 -111 -12 -6 -5 -51 -12 -100 -16 -50 -3
-96 -11 -103 -17 -7 -6 -32 -14 -55 -18 -23 -4 -67 -15 -97 -24 -30 -10 -77
-23 -105 -30 -66 -18 -123 -39 -204 -76 -36 -16 -77 -35 -91 -40 -32 -14 -70
-33 -145 -74 -121 -65 -207 -119 -300 -187 -80 -59 -93 -69 -195 -156 -77 -66
-218 -208 -265 -267 -36 -45 -71 -87 -100 -119 -6 -6 -34 -47 -63 -91 -28 -44
-56 -84 -60 -90 -6 -8 -68 -111 -122 -205 -26 -44 -80 -158 -80 -167 0 -6 -7
-25 -15 -42 -8 -17 -22 -45 -30 -62 -8 -17 -15 -41 -15 -53 0 -12 -7 -31 -15
-42 -8 -10 -15 -28 -15 -39 0 -11 -7 -33 -15 -49 -8 -15 -15 -41 -15 -57 0
-17 -7 -46 -15 -66 -8 -19 -15 -54 -15 -77 0 -23 -7 -51 -15 -62 -10 -13 -14
-46 -15 -107 0 -54 -5 -99 -14 -115 -14 -28 -14 -34 7 -197 14 -107 14 -107
33 22 7 44 52 98 89 105 11 2 21 12 24 23 4 25 19 35 51 35 14 0 31 9 38 20 7
11 20 20 29 20 9 0 24 6 32 14 29 26 126 70 149 67 12 -1 22 2 22 8 0 6 -6 11
-12 12 -7 1 -2 4 12 8 31 9 60 3 57 -12 -3 -16 34 -21 44 -5 5 7 9 27 9 44 0
19 9 39 25 54 14 13 25 33 25 45 0 12 7 30 15 41 8 10 15 28 15 38 0 16 18 62
50 126 4 9 11 30 15 48 3 18 10 32 13 32 4 0 15 19 26 43 28 63 85 178 108
217 11 19 32 58 46 85 15 28 32 56 39 63 8 8 21 28 30 45 8 17 22 37 30 45 8
8 22 27 31 41 30 48 136 186 174 226 62 67 222 228 263 264 49 44 242 191 251
191 3 0 23 13 43 29 20 16 55 39 79 52 24 13 51 29 60 34 84 49 202 108 272
135 82 32 100 39 182 74 20 9 40 16 46 16 5 0 22 6 37 14 15 8 55 21 89 30 33
8 99 25 146 37 110 28 172 37 242 38 34 1 58 6 60 13 4 12 22 13 207 17 l74 1
-19 21 c-14 15 -26 19 -50 15 -23 -5 -35 -1 -49 14 -16 18 -29 20 -86 18 -51
-1 -73 2 -86 14 -15 14 -55 17 -258 20 -132 1 -285 2 -339 0z"/>
<path d="M6550 8220 c0 -11 2 -20 4 -20 2 0 6 9 9 20 3 11 1 20 -4 20 -5 0 -9
-9 -9 -20z"/>
<path d="M6286 7919 c-15 -18 -15 -23 -5 -30 9 -5 22 0 37 16 27 29 27 35 4
35 -10 0 -26 -10 -36 -21z"/>
<path d="M6701 7854 c0 -11 3 -14 6 -6 3 7 2 16 -1 19 -3 4 -6 -2 -5 -13z"/>
<path d="M6665 7811 c-3 -5 -1 -12 5 -16 5 -3 10 1 10 9 0 18 -6 21 -15 7z"/>
<path d="M5580 7750 c0 -5 5 -10 11 -10 5 0 7 5 4 10 -3 6 -8 10 -11 10 -2 0
-4 -4 -4 -10z"/>
<path d="M6520 7555 c0 -8 2 -15 4 -15 2 0 6 7 10 15 3 8 1 15 -4 15 -6 0 -10
-7 -10 -15z"/>
<path d="M12357 7253 c-9 -8 -8 -375 1 -475 4 -43 4 -78 0 -78 -4 0 -30 16
-56 35 -52 37 -141 65 -209 65 -223 0 -428 -181 -500 -440 -24 -91 -25 -355 0
-455 65 -259 254 -425 486 -425 89 0 194 42 283 113 21 17 39 28 41 26 2 -2
10 -26 18 -54 l15 -50 177 -3 177 -2 0 875 0 875 -213 0 c-118 0 -217 -3 -220
-7z m-48 -842 l41 -21 0 -234 0 -234 -25 -30 c-29 -34 -99 -57 -150 -49 -96
16 -145 101 -153 266 -7 169 29 273 110 315 42 21 120 16 177 -13z"/>
<path d="M16805 7164 c-88 -21 -119 -32 -185 -63 -89 -43 -202 -149 -239 -224
-66 -137 -68 -294 -3 -422 13 -27 55 -80 91 -116 74 -73 144 -111 406 -220 88
-37 161 -74 178 -90 35 -35 36 -77 1 -118 -77 -92 -305 -56 -486 75 l-46 34
-54 -62 c-30 -35 -88 -103 -128 -152 l-74 -88 25 -20 c114 -92 251 -159 400
-195 101 -24 318 -24 409 1 297 81 464 315 420 591 -15 101 -59 183 -130 248
-70 63 -120 88 -369 187 -208 83 -241 105 -241 157 0 49 13 68 60 87 92 37
247 11 363 -59 32 -19 60 -35 62 -35 4 0 144 174 208 258 26 33 -136 143 -283
193 -85 29 -109 32 -230 35 -74 2 -144 1 -155 -2z"/>
<path d="M7340 6326 l0 -816 220 0 220 0 0 275 0 275 75 0 c69 0 76 -2 91 -26
10 -14 74 -137 143 -272 l126 -247 243 -3 c150 -1 242 1 242 7 0 6 -76 146
-170 312 -93 167 -170 306 -170 310 0 4 15 17 33 28 51 31 132 121 161 179 41
80 56 155 56 272 -1 124 -10 173 -52 258 -56 112 -162 189 -323 234 -75 21
-105 22 -487 26 l-408 3 0 -815z m767 435 c53 -31 73 -71 73 -150 0 -100 -42
-161 -131 -190 -19 -6 -87 -12 -150 -14 l-114 -2 -3 193 -2 194 142 -4 c129
-3 147 -5 185 -27z"/>
<path d="M9273 6786 c-140 -32 -272 -122 -360 -244 -91 -126 -130 -274 -119
-447 11 -188 64 -313 181 -430 208 -208 539 -242 840 -87 33 17 66 35 74 41
11 7 0 34 -58 141 -43 77 -78 129 -85 126 -136 -60 -138 -61 -251 -61 -119 0
-150 10 -208 64 -34 30 -70 97 -62 111 4 6 141 10 354 10 l349 0 6 31 c11 58
6 263 -9 334 -41 193 -170 344 -339 397 -81 25 -233 32 -313 14z m248 -361
c30 -29 55 -96 45 -121 -4 -11 -39 -14 -175 -14 -93 0 -172 4 -175 9 -11 17
44 106 79 130 70 47 174 45 226 -4z"/>
<path d="M10829 6782 c-68 -18 -142 -60 -221 -124 l-46 -39 -12 58 c-6 32 -14
66 -16 76 -5 15 -22 17 -185 17 l-179 0 0 -630 0 -630 220 0 220 0 0 411 c0
462 -9 411 79 470 36 23 56 29 99 29 67 0 89 -12 110 -58 14 -32 17 -94 20
-445 l4 -407 216 2 217 3 -1 440 c0 371 -3 452 -17 514 -36 159 -108 261 -215
302 -79 30 -206 35 -293 11z"/>
<path d="M13500 6784 c-176 -37 -340 -164 -419 -325 -50 -101 -71 -193 -71
-316 0 -272 122 -482 345 -594 362 -180 782 16 881 411 23 90 22 273 -1 365
-82 328 -405 530 -735 459z m216 -363 c69 -42 107 -208 85 -368 -21 -152 -70
-215 -166 -215 -90 0 -144 60 -166 183 -13 73 -7 231 10 290 15 49 51 101 81
116 38 19 120 16 156 -6z"/>
<path d="M14825 6784 c-220 -48 -357 -180 -386 -372 -20 -135 12 -239 107
-341 l53 -58 -38 -37 c-22 -21 -52 -61 -67 -90 -24 -42 -29 -63 -28 -116 1
-75 23 -126 78 -179 l36 -34 -50 -34 c-79 -53 -128 -133 -130 -209 0 -57 30
-134 71 -178 89 -98 263 -142 519 -133 325 12 543 113 632 295 30 61 33 74 33
162 0 86 -3 100 -29 148 -45 80 -105 119 -234 153 -61 16 -124 22 -308 27
-208 6 -234 9 -253 26 -22 20 -27 61 -11 86 8 12 31 14 132 12 196 -6 326 35
424 133 82 82 121 222 96 353 l-9 52 88 0 89 0 0 160 0 160 -238 0 c-130 0
-253 5 -272 10 -64 19 -229 21 -305 4z m216 -300 c38 -19 59 -71 59 -146 0
-77 -23 -126 -71 -151 -81 -43 -170 11 -184 112 -21 155 75 246 196 185z m97
-1038 c72 -4 102 -24 102 -66 0 -64 -89 -103 -240 -104 -119 -1 -186 18 -220
61 -24 31 -25 45 -4 88 l15 33 142 -4 c78 -3 170 -6 205 -8z"/>
<path d="M18163 6785 c-234 -51 -421 -247 -469 -495 -19 -98 -15 -261 10 -352
79 -290 348 -475 661 -455 139 9 329 72 402 133 l23 19 -70 125 c-39 69 -76
124 -83 123 -6 -1 -41 -14 -77 -30 -58 -25 -76 -28 -175 -28 -118 0 -166 15
-215 68 -29 30 -62 95 -55 107 4 6 141 10 355 10 l348 0 8 67 c26 246 -44 482
-177 597 -122 105 -312 149 -486 111z m249 -365 c28 -30 54 -103 43 -120 -4
-6 -78 -10 -181 -10 l-175 0 7 23 c34 112 120 165 234 145 31 -5 54 -17 72
-38z"/>
<path d="M19735 6791 c-98 -26 -188 -92 -251 -185 -37 -55 -36 -55 -49 49 -3
28 -9 65 -12 83 l-5 32 -179 0 -179 0 0 -630 0 -630 218 2 217 3 5 361 5 361
35 52 c65 96 134 126 265 118 l93 -6 21 112 c11 62 27 145 35 185 13 70 13 73
-7 83 -25 14 -172 21 -212 10z"/>
<path d="M21853 6786 c-158 -36 -322 -162 -395 -302 -63 -121 -79 -195 -79
-348 0 -207 54 -351 175 -471 179 -176 439 -229 706 -143 68 21 220 96 220
107 -1 21 -141 256 -152 254 -7 -1 -42 -14 -78 -29 -131 -55 -296 -42 -377 30
-36 31 -76 103 -67 118 3 4 162 8 354 8 l348 0 8 33 c15 68 7 269 -14 348 -53
197 -174 334 -342 383 -78 24 -230 29 -307 12z m227 -340 c25 -11 61 -73 67
-115 l6 -41 -177 0 c-194 0 -190 -2 -162 63 32 78 118 121 211 106 22 -3 47
-9 55 -13z"/>
<path d="M23406 6784 c-90 -28 -155 -76 -222 -168 -24 -32 -44 -54 -44 -50 0
9 -15 111 -25 172 l-6 32 -180 0 -179 0 2 -627 3 -628 215 0 215 0 5 355 c5
340 6 357 27 395 27 51 76 97 133 125 40 20 55 22 142 17 54 -3 98 -4 98 -4
45 237 66 364 60 370 -25 28 -168 34 -244 11z"/>
<path d="M19990 6764 c0 -3 90 -281 201 -617 110 -337 202 -618 204 -625 4
-10 60 -12 256 -10 l252 3 102 325 c236 743 285 902 285 916 0 12 -33 14 -207
12 l-208 -3 -81 -340 c-45 -187 -94 -394 -109 -459 -17 -71 -31 -113 -35 -105
-4 8 -15 50 -24 94 -10 44 -58 245 -108 448 l-90 367 -219 0 c-120 0 -219 -3
-219 -6z"/>
<path d="M5579 5230 c-20 -49 -39 -119 -39 -141 0 -15 -7 -32 -15 -39 -8 -7
-15 -22 -15 -34 0 -11 -7 -30 -15 -40 -8 -11 -15 -27 -15 -36 0 -9 -11 -37
-25 -61 -14 -24 -27 -48 -29 -54 -14 -34 -18 -42 -29 -60 -21 -35 -51 -80 -57
-85 -3 -3 -13 -21 -23 -41 -11 -20 -32 -51 -48 -68 -16 -18 -29 -35 -29 -38 0
-34 -290 -327 -390 -393 -12 -8 -28 -20 -34 -26 -27 -26 -161 -114 -173 -114
-7 0 -13 -4 -13 -9 0 -5 -12 -14 -27 -20 -16 -6 -41 -20 -58 -31 -16 -11 -37
-22 -45 -26 -8 -3 -22 -10 -30 -15 -8 -5 -26 -14 -40 -19 -14 -6 -52 -24 -85
-40 -33 -16 -91 -41 -130 -56 -38 -14 -74 -30 -80 -34 -5 -4 -29 -11 -52 -15
-31 -5 -43 -12 -43 -23 0 -22 -35 -74 -43 -65 -4 3 -7 0 -7 -8 0 -8 5 -20 10
-25 17 -17 -9 -156 -33 -175 -17 -14 -18 -20 -8 -49 14 -42 15 -40 -13 -40
-29 0 -54 -25 -32 -33 24 -10 129 0 181 16 28 9 77 23 110 33 33 10 69 24 80
31 11 7 28 13 38 13 17 0 49 14 97 41 8 5 22 12 30 15 25 11 94 44 115 57 98
58 130 79 200 131 138 103 249 213 381 376 30 36 40 49 62 74 6 8 12 19 12 24
0 5 14 28 30 50 17 23 30 46 30 51 0 5 6 13 13 19 17 15 147 279 147 300 0 6
6 23 14 39 20 40 38 93 43 128 3 17 11 44 19 62 8 17 14 45 14 61 0 17 4 33 9
36 5 4 12 41 16 84 4 42 13 92 21 109 10 22 14 57 12 105 -2 40 -6 66 -9 58z"/>
<path d="M19257 5033 c-4 -3 -7 -247 -7 -541 l0 -534 248 4 c229 4 252 6 312
28 150 54 240 143 291 286 25 73 37 267 21 367 -33 210 -181 351 -402 387 -71
11 -453 14 -463 3z m423 -245 c89 -27 138 -97 148 -212 22 -239 -48 -358 -226
-382 l-52 -7 0 313 0 312 48 -6 c26 -4 63 -12 82 -18z"/>
<path d="M20535 4790 c-72 -23 -146 -78 -196 -144 -107 -142 -107 -400 0 -542
74 -98 172 -151 296 -161 122 -10 227 25 314 103 164 147 180 453 33 624 -104
122 -287 171 -447 120z m202 -242 c33 -31 46 -81 45 -174 0 -94 -13 -142 -45
-171 -32 -30 -62 -36 -103 -23 -28 10 -40 22 -54 54 -37 85 -33 241 8 296 40
54 103 61 149 18z"/>
<path d="M21488 4791 c-120 -39 -217 -123 -265 -229 -22 -48 -27 -75 -31 -169
-4 -95 -1 -121 18 -177 39 -119 144 -225 253 -258 67 -20 242 -17 302 6 52 19
115 61 115 76 0 11 -100 180 -106 180 -3 0 -24 -10 -47 -22 -130 -67 -238 14
-238 177 0 54 5 84 20 113 40 79 124 110 196 73 21 -12 42 -18 46 -13 3 4 34
45 69 92 70 96 72 90 -30 139 -73 35 -215 41 -302 12z"/>
<path d="M22181 4791 c-29 -11 -60 -26 -70 -33 -86 -64 -114 -117 -115 -213 0
-129 58 -192 254 -272 96 -39 118 -59 100 -92 -23 -44 -111 -37 -208 15 -35
19 -67 32 -71 30 -3 -3 -33 -41 -66 -87 l-59 -82 25 -20 c13 -11 51 -32 84
-48 167 -76 378 -62 490 33 65 55 100 177 75 267 -16 62 -89 130 -177 166
-165 68 -173 72 -173 99 0 55 78 58 173 8 29 -15 55 -28 58 -30 9 -4 122 148
123 167 1 10 -30 31 -87 61 -87 44 -91 45 -195 48 -87 2 -117 -1 -161 -17z"/>
</g>
</svg>
